<?xml version="1.0" encoding="UTF-8" standalone="no"?>
<!-- Created with Inkscape (http://www.inkscape.org/) -->

<svg
   xmlns:dc="http://purl.org/dc/elements/1.1/"
   xmlns:cc="http://creativecommons.org/ns#"
   xmlns:rdf="http://www.w3.org/1999/02/22-rdf-syntax-ns#"
   xmlns:svg="http://www.w3.org/2000/svg"
   xmlns="http://www.w3.org/2000/svg"
   xmlns:xlink="http://www.w3.org/1999/xlink"
   xmlns:sodipodi="http://sodipodi.sourceforge.net/DTD/sodipodi-0.dtd"
   xmlns:inkscape="http://www.inkscape.org/namespaces/inkscape"
   version="1.0"
   width="1000"
   height="500"
   id="svg7735"
   inkscape:version="0.47 r22583"
   sodipodi:docname="Scrum_process.svg"
   inkscape:export-filename="/home/placek/Pobrane/scrum.png"
   inkscape:export-xdpi="90"
   inkscape:export-ydpi="90">
  <metadata
     id="metadata89">
    <rdf:RDF>
      <cc:Work
         rdf:about="">
        <dc:format>image/svg+xml</dc:format>
        <dc:type
           rdf:resource="http://purl.org/dc/dcmitype/StillImage" />
        <dc:title></dc:title>
      </cc:Work>
    </rdf:RDF>
  </metadata>
  <sodipodi:namedview
     pagecolor="#ffffff"
     bordercolor="#666666"
     borderopacity="1"
     objecttolerance="10"
     gridtolerance="10"
     guidetolerance="10"
     inkscape:pageopacity="0"
     inkscape:pageshadow="2"
     inkscape:window-width="1024"
     inkscape:window-height="576"
     id="namedview87"
     showgrid="false"
     inkscape:zoom="0.472"
     inkscape:cx="584.74576"
     inkscape:cy="250"
     inkscape:window-x="-1"
     inkscape:window-y="-3"
     inkscape:window-maximized="1"
     inkscape:current-layer="svg7735" />
  <defs
     id="defs7737">
    <inkscape:perspective
       sodipodi:type="inkscape:persp3d"
       inkscape:vp_x="0 : 250 : 1"
       inkscape:vp_y="0 : 1000 : 0"
       inkscape:vp_z="1000 : 250 : 1"
       inkscape:persp3d-origin="500 : 166.66667 : 1"
       id="perspective91" />
    <linearGradient
       x1="320.48965"
       y1="997.25226"
       x2="315.38376"
       y2="801.52301"
       id="linearGradient7733"
       xlink:href="#linearGradient7432"
       gradientUnits="userSpaceOnUse"
       gradientTransform="matrix(20.53135,0,0,22.526701,7201.5647,-7493.9062)" />
    <linearGradient
       x1="320.48965"
       y1="997.25226"
       x2="315.38376"
       y2="801.52301"
       id="linearGradient7731"
       xlink:href="#linearGradient7432"
       gradientUnits="userSpaceOnUse"
       gradientTransform="matrix(20.53135,0,0,22.526701,6642.7645,-7493.9062)" />
    <linearGradient
       x1="320.48965"
       y1="997.25226"
       x2="315.38376"
       y2="801.52301"
       id="linearGradient7729"
       xlink:href="#linearGradient7432"
       gradientUnits="userSpaceOnUse"
       gradientTransform="matrix(20.53135,0,0,22.526701,6060.6994,-7482.4114)" />
    <linearGradient
       id="linearGradient7432">
      <stop
         id="stop7434"
         style="stop-color:#b3b3b3;stop-opacity:1"
         offset="0" />
      <stop
         id="stop7436"
         style="stop-color:#b3b3b3;stop-opacity:0"
         offset="1" />
    </linearGradient>
    <linearGradient
       x1="320.48965"
       y1="997.25226"
       x2="315.38376"
       y2="801.52301"
       id="linearGradient7727"
       xlink:href="#linearGradient7432"
       gradientUnits="userSpaceOnUse"
       gradientTransform="matrix(20.53135,0,0,22.526701,5495.4212,-7465.4451)" />
    <inkscape:perspective
       id="perspective7743" />
    <linearGradient
       x1="320.48965"
       y1="997.25226"
       x2="315.38376"
       y2="801.52301"
       id="linearGradient7899"
       xlink:href="#linearGradient7432"
       gradientUnits="userSpaceOnUse"
       gradientTransform="matrix(20.53135,0,0,22.526701,5495.4212,-7465.4451)" />
    <linearGradient
       x1="320.48965"
       y1="997.25226"
       x2="315.38376"
       y2="801.52301"
       id="linearGradient7901"
       xlink:href="#linearGradient7432"
       gradientUnits="userSpaceOnUse"
       gradientTransform="matrix(20.53135,0,0,22.526701,6060.6994,-7482.4114)" />
    <linearGradient
       x1="320.48965"
       y1="997.25226"
       x2="315.38376"
       y2="801.52301"
       id="linearGradient7903"
       xlink:href="#linearGradient7432"
       gradientUnits="userSpaceOnUse"
       gradientTransform="matrix(20.53135,0,0,22.526701,6642.7645,-7493.9062)" />
    <linearGradient
       x1="320.48965"
       y1="997.25226"
       x2="315.38376"
       y2="801.52301"
       id="linearGradient7905"
       xlink:href="#linearGradient7432"
       gradientUnits="userSpaceOnUse"
       gradientTransform="matrix(20.53135,0,0,22.526701,7201.5647,-7493.9062)" />
  </defs>
  <g
     style="fill-rule:evenodd;stroke:#009f9e;stroke-width:64.86071777;stroke-miterlimit:4;stroke-opacity:1;stroke-dasharray:none;visibility:visible"
     id="g2549"
     transform="matrix(0.035433,0,0,0.035433,-150.33974,-154.40525)">
    <desc
       id="desc2551">Drawing</desc>
    <g
       style="stroke:#009f9e;stroke-width:64.86071777;stroke-miterlimit:4;stroke-opacity:1;stroke-dasharray:none"
       id="g2553">
      <g
         style="fill:#99ccff;stroke:#009f9e;stroke-width:64.86071777;stroke-miterlimit:4;stroke-opacity:1;stroke-dasharray:none"
         id="g2555">
        <path
           style="stroke:#009f9e;stroke-width:64.86071777;stroke-miterlimit:4;stroke-opacity:1;stroke-dasharray:none"
           id="path2557"
           d="m 10044,12849 2408,0 0,-489 803,979 -803,979 0,-490 -2408,0 0,-979 z" />
      </g>
      <g
         style="fill:none;stroke:#009f9e;stroke-width:64.86071777;stroke-miterlimit:4;stroke-opacity:1;stroke-dasharray:none"
         id="g2559">
        <path
           style="fill:none;stroke:#009f9e;stroke-width:64.86071777;stroke-miterlimit:4;stroke-opacity:1;stroke-dasharray:none"
           id="path2561"
           d="m 10044,12849 2408,0 0,-489 803,979 -803,979 0,-490 -2408,0 0,-979" />
      </g>
      <g
         style="stroke:#009f9e;stroke-width:64.86071777;stroke-miterlimit:4;stroke-opacity:1;stroke-dasharray:none"
         id="g2563" />
    </g>
  </g>
  <g
     style="fill-rule:evenodd;stroke:#009f9e;stroke-width:64.86071777;stroke-miterlimit:4;stroke-opacity:1;stroke-dasharray:none;visibility:visible"
     id="g2565"
     transform="matrix(0.035433,0,0,0.035433,-26.884938,-143.219)">
    <desc
       id="desc2567">Drawing</desc>
    <g
       style="stroke:#009f9e;stroke-width:64.86071777;stroke-miterlimit:4;stroke-opacity:1;stroke-dasharray:none"
       id="g2569">
      <g
         style="fill:#99ccff;stroke:#009f9e;stroke-width:64.86071777;stroke-miterlimit:4;stroke-opacity:1;stroke-dasharray:none"
         id="g2571">
        <path
           style="stroke:#009f9e;stroke-width:64.86071777;stroke-miterlimit:4;stroke-opacity:1;stroke-dasharray:none"
           id="path2573"
           d="m 18411,7164 -10,-81 -14,-81 -18,-80 -22,-79 -26,-78 -30,-76 -34,-75 -37,-73 -41,-71 -44,-70 -48,-66 -52,-65 -54,-62 -58,-59 -60,-56 -63,-53 -66,-50 -68,-47 -71,-43 -72,-40 -75,-36 -76,-32 -78,-29 -79,-25 -80,-21 -81,-16 -82,-13 -83,-9 -83,-5 -83,-1 -83,4 -82,7 -82,11 -82,16 -81,19 -79,24 -78,27 -77,31 -75,35 -73,38 -72,43 -69,45 -66,49 -65,52 -61,55 -59,58 -55,61 -53,63 -49,66 -46,69 -42,70 -39,73 -35,74 -31,76 -27,77 -23,79 -20,80 -15,80 -12,81 -7,82 -3,82 1,82 5,82 10,81 13,81 17,80 22,79 25,78 30,77 33,75 37,73 40,72 44,69 48,67 51,65 54,62 57,60 60,56 63,54 65,50 68,47 70,44 72,40 75,37 76,33 77,29 79,26 80,21 81,17 82,14 83,9 82,6 83,1 5,606 -113,-2 -113,-7 -113,-13 -112,-19 -111,-23 -109,-30 -108,-34 -106,-40 -104,-45 -101,-51 -99,-55 -96,-59 -93,-65 -89,-69 -86,-73 -82,-77 -78,-82 -74,-85 -69,-88 -65,-92 -61,-95 -55,-98 -50,-100 -46,-103 -40,-105 -34,-106 -30,-109 -23,-109 -19,-111 -12,-111 -7,-112 -2,-112 4,-112 10,-111 16,-111 21,-111 26,-108 32,-108 38,-106 42,-104 48,-101 53,-99 58,-97 62,-93 68,-90 71,-87 76,-83 80,-80 84,-75 88,-71 91,-67 94,-62 98,-57 100,-53 103,-48 105,-42 106,-37 109,-32 110,-27 112,-21 112,-16 113,-10 113,-5 114,1 113,7 113,12 112,18 111,23 109,28 109,34 106,39 104,45 102,49 99,54 96,59 94,64 89,69 87,72 82,77 79,81 74,84 71,88 65,92 61,94 56,98 51,100 46,102 41,104 36,107 30,108 24,109 19,111 14,111 568,-53 -790,943 -955,-781 568,-53 z" />
      </g>
      <g
         style="fill:none;stroke:#009f9e;stroke-width:64.86071777;stroke-miterlimit:4;stroke-opacity:1;stroke-dasharray:none"
         id="g2575">
        <path
           style="fill:none;stroke:#009f9e;stroke-width:64.86071777;stroke-miterlimit:4;stroke-opacity:1;stroke-dasharray:none"
           id="path2577"
           d="m 18411,7164 -10,-81 -14,-81 -18,-80 -22,-79 -26,-78 -30,-76 -34,-75 -37,-73 -41,-71 -44,-70 -48,-66 -52,-65 -54,-62 -58,-59 -60,-56 -63,-53 -66,-50 -68,-47 -71,-43 -72,-40 -75,-36 -76,-32 -78,-29 -79,-25 -80,-21 -81,-16 -82,-13 -83,-9 -83,-5 -83,-1 -83,4 -82,7 -82,11 -82,16 -81,19 -79,24 -78,27 -77,31 -75,35 -73,38 -72,43 -69,45 -66,49 -65,52 -61,55 -59,58 -55,61 -53,63 -49,66 -46,69 -42,70 -39,73 -35,74 -31,76 -27,77 -23,79 -20,80 -15,80 -12,81 -7,82 -3,82 1,82 5,82 10,81 13,81 17,80 22,79 25,78 30,77 33,75 37,73 40,72 44,69 48,67 51,65 54,62 57,60 60,56 63,54 65,50 68,47 70,44 72,40 75,37 76,33 77,29 79,26 80,21 81,17 82,14 83,9 82,6 83,1 5,606 -113,-2 -113,-7 -113,-13 -112,-19 -111,-23 -109,-30 -108,-34 -106,-40 -104,-45 -101,-51 -99,-55 -96,-59 -93,-65 -89,-69 -86,-73 -82,-77 -78,-82 -74,-85 -69,-88 -65,-92 -61,-95 -55,-98 -50,-100 -46,-103 -40,-105 -34,-106 -30,-109 -23,-109 -19,-111 -12,-111 -7,-112 -2,-112 4,-112 10,-111 16,-111 21,-111 26,-108 32,-108 38,-106 42,-104 48,-101 53,-99 58,-97 62,-93 68,-90 71,-87 76,-83 80,-80 84,-75 88,-71 91,-67 94,-62 98,-57 100,-53 103,-48 105,-42 106,-37 109,-32 110,-27 112,-21 112,-16 113,-10 113,-5 114,1 113,7 113,12 112,18 111,23 109,28 109,34 106,39 104,45 102,49 99,54 96,59 94,64 89,69 87,72 82,77 79,81 74,84 71,88 65,92 61,94 56,98 51,100 46,102 41,104 36,107 30,108 24,109 19,111 14,111 568,-53 -790,943 -955,-781 568,-53" />
      </g>
      <g
         style="stroke:#009f9e;stroke-width:64.86071777;stroke-miterlimit:4;stroke-opacity:1;stroke-dasharray:none"
         id="g2579" />
    </g>
  </g>
  <g
     style="fill-rule:evenodd;stroke:#009f9e;stroke-width:64.86071777;stroke-miterlimit:4;stroke-opacity:1;stroke-dasharray:none;visibility:visible"
     id="g2581"
     transform="matrix(0.035433,0,0,0.035433,-26.884938,-143.219)">
    <desc
       id="desc2583">Drawing</desc>
    <g
       style="stroke:#009f9e;stroke-width:64.86071777;stroke-miterlimit:4;stroke-opacity:1;stroke-dasharray:none"
       id="g2585">
      <g
         style="fill:#99ccff;stroke:#009f9e;stroke-width:64.86071777;stroke-miterlimit:4;stroke-opacity:1;stroke-dasharray:none"
         id="g2587">
        <path
           style="stroke:#009f9e;stroke-width:64.86071777;stroke-miterlimit:4;stroke-opacity:1;stroke-dasharray:none"
           id="path2589"
           d="m 14668,12787 3602,0 0,1039 -3602,0 0,-1039 z" />
      </g>
      <g
         style="fill:none;stroke:#009f9e;stroke-width:64.86071777;stroke-miterlimit:4;stroke-opacity:1;stroke-dasharray:none"
         id="g2591">
        <path
           style="fill:none;stroke:#009f9e;stroke-width:64.86071777;stroke-miterlimit:4;stroke-opacity:1;stroke-dasharray:none"
           id="path2593"
           d="m 16469,13826 -1801,0 0,-1039 3602,0 0,1039 -1801,0" />
      </g>
      <g
         style="stroke:#009f9e;stroke-width:64.86071777;stroke-miterlimit:4;stroke-opacity:1;stroke-dasharray:none"
         id="g2595" />
    </g>
  </g>
  <g
     style="fill-rule:evenodd;stroke:#009f9e;stroke-width:64.86071777;stroke-miterlimit:4;stroke-opacity:1;stroke-dasharray:none;visibility:visible"
     id="g2597"
     transform="matrix(0.035433,0,0,0.035433,-26.884938,-143.219)">
    <desc
       id="desc2599">Drawing</desc>
    <g
       style="stroke:#009f9e;stroke-width:64.86071777;stroke-miterlimit:4;stroke-opacity:1;stroke-dasharray:none"
       id="g2601">
      <g
         style="fill:#99ccff;stroke:#009f9e;stroke-width:64.86071777;stroke-miterlimit:4;stroke-opacity:1;stroke-dasharray:none"
         id="g2603">
        <path
           style="stroke:#009f9e;stroke-width:64.86071777;stroke-miterlimit:4;stroke-opacity:1;stroke-dasharray:none"
           id="path2605"
           d="m 19244,12850 2408,0 0,-489 803,979 -803,979 0,-490 -2408,0 0,-979 z" />
      </g>
      <g
         style="fill:none;stroke:#009f9e;stroke-width:64.86071777;stroke-miterlimit:4;stroke-opacity:1;stroke-dasharray:none"
         id="g2607">
        <path
           style="fill:none;stroke:#009f9e;stroke-width:64.86071777;stroke-miterlimit:4;stroke-opacity:1;stroke-dasharray:none"
           id="path2609"
           d="m 19244,12850 2408,0 0,-489 803,979 -803,979 0,-490 -2408,0 0,-979" />
      </g>
      <g
         style="stroke:#009f9e;stroke-width:64.86071777;stroke-miterlimit:4;stroke-opacity:1;stroke-dasharray:none"
         id="g2611" />
    </g>
  </g>
  <g
     style="fill-rule:evenodd;stroke:#009f9e;stroke-width:64.86071777;stroke-miterlimit:4;stroke-opacity:1;stroke-dasharray:none;visibility:visible"
     id="g2613"
     transform="matrix(0.035433,0,0,0.035433,-26.884938,-143.219)">
    <desc
       id="desc2615">Drawing</desc>
    <g
       style="stroke:#009f9e;stroke-width:64.86071777;stroke-miterlimit:4;stroke-opacity:1;stroke-dasharray:none"
       id="g2617">
      <g
         style="fill:#99ccff;stroke:#009f9e;stroke-width:64.86071777;stroke-miterlimit:4;stroke-opacity:1;stroke-dasharray:none"
         id="g2619">
        <path
           style="stroke:#009f9e;stroke-width:64.86071777;stroke-miterlimit:4;stroke-opacity:1;stroke-dasharray:none"
           id="path2621"
           d="m 17060,12032 -46,-73 -42,-75 -38,-77 -35,-79 -30,-80 -26,-82 -22,-83 -18,-84 -14,-85 -10,-85 -5,-86 -1,-86 4,-85 7,-86 12,-85 16,-84 21,-84 24,-82 29,-81 32,-79 37,-78 40,-76 45,-74 47,-72 52,-69 54,-66 58,-64 62,-61 64,-58 67,-54 69,-52 72,-47 75,-44 76,-41 78,-37 80,-32 82,-29 83,-25 84,-21 85,-16 86,-13 86,-8 87,-4 87,1 86,4 87,9 85,13 85,18 84,21 83,25 81,30 80,33 78,38 76,41 74,45 72,48 69,52 67,55 63,58 61,62 57,64 54,67 51,70 47,72 44,74 40,76 35,78 32,80 28,81 24,83 20,83 15,85 11,85 7,85 3,86 -2,86 -6,86 -10,85 -14,84 -19,84 -23,83 -27,82 -31,80 -35,78 -39,77 -42,75 -47,72 -50,70 -53,68 -57,65 -60,62 -63,59 -65,56 -69,52 -71,50 -73,45 -76,42 -78,38 -79,35 -81,30 -83,27 -83,22 -85,18 -86,14 -86,10 -86,6 -87,1 -9,1000 136,-2 137,-9 136,-16 134,-22 134,-28 132,-36 130,-41 128,-48 125,-54 123,-61 119,-66 116,-72 112,-77 108,-83 103,-88 100,-94 94,-97 89,-103 84,-106 79,-111 73,-114 68,-118 61,-121 55,-124 49,-126 43,-129 36,-130 29,-132 23,-134 16,-134 9,-135 3,-135 -4,-136 -11,-135 -18,-134 -24,-133 -31,-132 -38,-130 -44,-128 -50,-126 -57,-123 -62,-120 -69,-117 -74,-114 -80,-109 -86,-106 -90,-101 -96,-97 -100,-92 -105,-87 -109,-82 -113,-76 -116,-71 -120,-65 -123,-59 -126,-52 -128,-47 -131,-40 -132,-34 -134,-27 -135,-21 -136,-14 -137,-7 -137,0 -136,6 -136,13 -135,19 -135,26 -132,33 -131,39 -129,45 -126,52 -124,58 -120,64 -118,69 -113,76 -110,80 -105,86 -101,92 -97,96 -91,100 -86,105 -81,109 -76,113 -69,116 -64,120 -58,123 -51,125 -45,128 -39,130 -32,131 -25,133 -19,134 -12,135 -6,135 2,135 8,136 15,134 22,134 28,132 35,131 41,129 48,127 54,124 60,121 67,119 72,115 -577,374 1654,340 343,-1637 -576,374 z" />
      </g>
      <g
         style="fill:none;stroke:#009f9e;stroke-width:64.86071777;stroke-miterlimit:4;stroke-opacity:1;stroke-dasharray:none"
         id="g2623">
        <path
           style="fill:none;stroke:#009f9e;stroke-width:64.86071777;stroke-miterlimit:4;stroke-opacity:1;stroke-dasharray:none"
           id="path2625"
           d="m 17060,12032 -46,-73 -42,-75 -38,-77 -35,-79 -30,-80 -26,-82 -22,-83 -18,-84 -14,-85 -10,-85 -5,-86 -1,-86 4,-85 7,-86 12,-85 16,-84 21,-84 24,-82 29,-81 32,-79 37,-78 40,-76 45,-74 47,-72 52,-69 54,-66 58,-64 62,-61 64,-58 67,-54 69,-52 72,-47 75,-44 76,-41 78,-37 80,-32 82,-29 83,-25 84,-21 85,-16 86,-13 86,-8 87,-4 87,1 86,4 87,9 85,13 85,18 84,21 83,25 81,30 80,33 78,38 76,41 74,45 72,48 69,52 67,55 63,58 61,62 57,64 54,67 51,70 47,72 44,74 40,76 35,78 32,80 28,81 24,83 20,83 15,85 11,85 7,85 3,86 -2,86 -6,86 -10,85 -14,84 -19,84 -23,83 -27,82 -31,80 -35,78 -39,77 -42,75 -47,72 -50,70 -53,68 -57,65 -60,62 -63,59 -65,56 -69,52 -71,50 -73,45 -76,42 -78,38 -79,35 -81,30 -83,27 -83,22 -85,18 -86,14 -86,10 -86,6 -87,1 -9,1000 136,-2 137,-9 136,-16 134,-22 134,-28 132,-36 130,-41 128,-48 125,-54 123,-61 119,-66 116,-72 112,-77 108,-83 103,-88 100,-94 94,-97 89,-103 84,-106 79,-111 73,-114 68,-118 61,-121 55,-124 49,-126 43,-129 36,-130 29,-132 23,-134 16,-134 9,-135 3,-135 -4,-136 -11,-135 -18,-134 -24,-133 -31,-132 -38,-130 -44,-128 -50,-126 -57,-123 -62,-120 -69,-117 -74,-114 -80,-109 -86,-106 -90,-101 -96,-97 -100,-92 -105,-87 -109,-82 -113,-76 -116,-71 -120,-65 -123,-59 -126,-52 -128,-47 -131,-40 -132,-34 -134,-27 -135,-21 -136,-14 -137,-7 -137,0 -136,6 -136,13 -135,19 -135,26 -132,33 -131,39 -129,45 -126,52 -124,58 -120,64 -118,69 -113,76 -110,80 -105,86 -101,92 -97,96 -91,100 -86,105 -81,109 -76,113 -69,116 -64,120 -58,123 -51,125 -45,128 -39,130 -32,131 -25,133 -19,134 -12,135 -6,135 2,135 8,136 15,134 22,134 28,132 35,131 41,129 48,127 54,124 60,121 67,119 72,115 -577,374 1654,340 343,-1637 -576,374" />
      </g>
      <g
         style="stroke:#009f9e;stroke-width:64.86071777;stroke-miterlimit:4;stroke-opacity:1;stroke-dasharray:none"
         id="g2627" />
    </g>
  </g>
  <g
     style="fill-rule:evenodd"
     id="g19681"
     transform="matrix(0.495352,0,0,0.347107,676.63284,135.07402)">
    <path
       style="fill:#ae8858;fill-opacity:1;fill-rule:evenodd;stroke:#ba925b;stroke-width:5;stroke-linecap:round;stroke-linejoin:round;stroke-miterlimit:4;stroke-opacity:1"
       id="rect5071"
       d="m 548.26779,703.58265 0,-251.58932 -286.09299,0 0,251.58932 286.09299,0 z m 0.0347,-251.5176 22.52343,-90.2845 0.0516,206.42506 -22.63491,135.31956 m 22.63491,-341.82316 -270.03551,0 -38.73759,89.87655 286.21012,0.48625" />
    <path
       style="fill:none;stroke:#9c7a4d;stroke-width:3;stroke-linecap:butt;stroke-linejoin:miter;stroke-miterlimit:4;stroke-opacity:1;stroke-dasharray:none"
       id="path8967"
       d="m 404.6702,453.93353 26.61996,-94.26878" />
    <path
       style="fill:none;stroke:#9c7a4d;stroke-width:2;stroke-linecap:square;stroke-linejoin:bevel;stroke-miterlimit:4;stroke-opacity:1;stroke-dasharray:none"
       id="path10907"
       d="m 265.68103,453.48544 279.08911,0.0834" />
    <path
       style="opacity:0.7;fill:#bc956c;fill-opacity:1;fill-rule:evenodd;stroke:none"
       id="path15762"
       d="m 381.35803,452.57073 -0.0859,30.93002 4.98317,-3.95217 4.98317,3.95215 4.89726,-3.78033 5.15499,3.69441 5.06909,-3.86624 4.81134,3.95216 5.06907,-3.86624 4.98317,3.86625 c 0,0 5.06909,-3.78034 5.06909,-3.78034 l 4.98317,3.95216 -0.0859,-31.10184 0.10142,-0.0155 18.00442,-93.30554 -34.75818,-0.0859 -33.17934,93.40697 z" />
    <path
       style="opacity:0.05000012;fill:#ffffff;fill-opacity:1;fill-rule:evenodd;stroke:none"
       id="path17740"
       d="m 545.53673,613.40253 c 0,-83.86311 0.13049,-74.94557 0.13049,-158.80867 -95.36432,0 -185.52756,10e-6 -280.89188,10e-6 0,83.8631 0,75.84036 0,159.70347 104.89964,-71.0815 180.19598,-68.21998 280.76139,-0.89481 z m 5.16713,-160.9361 c 7.50781,-30.09483 10.17235,-39.78949 17.68016,-69.88433 -8.6142,79.53235 -10.04656,190.20827 -17.54087,235.01194 m -4.73097,-168.17743 c 6.31987,-24.85899 10.07834,-39.44972 17.80272,-70.48231 -5.65503,3.95835 -15.82515,8.00921 -28.35642,11.85082 -12.53127,3.8416 -27.38174,7.68425 -42.52335,10.59528 -30.81117,5.89394 -43.00677,21.39289 -53.77164,27.37999 -8.71592,4.84754 -22.76883,6.93137 -30.08172,6.80152 -7.39064,0.0862 -15.92733,-6.32883 -22.09843,-10.07067 -8.60008,-5.21465 -3.4458,-16.04457 -33.92618,-23.73858 -12.00696,-3.03086 -23.67793,-6.72354 -33.57904,-10.7394 -9.90112,-4.01587 -18.02168,-8.39706 -22.8957,-12.93133 -9.63196,21.72186 -18.18329,42.22725 -30.45894,71.01423" />
  </g>
  <text
     style="font-size:22.62852478px;font-style:normal;font-weight:normal;fill:#000000;fill-opacity:1;fill-rule:evenodd;stroke:none;font-family:Bitstream Vera Sans"
     xml:space="preserve"
     id="text6003"
     y="254.37865"
     x="569.5448"><tspan
       id="tspan6005"
       y="254.37865"
       x="569.5448">7 ~ 30 dni</tspan></text>
  <text
     style="font-size:22.62852478px;font-style:normal;font-weight:normal;fill:#000000;fill-opacity:1;fill-rule:evenodd;stroke:none;font-family:Bitstream Vera Sans"
     xml:space="preserve"
     id="text6007"
     y="120.32111"
     x="540.43896"><tspan
       id="tspan6009"
       y="120.32111"
       x="540.43896">24 h</tspan></text>
  <text
     style="font-size:19.79995728px;font-style:normal;font-weight:normal;fill:#000000;fill-opacity:1;fill-rule:evenodd;stroke:none;font-family:Bitstream Vera Sans"
     xml:space="preserve"
     id="text6087"
     y="424.85114"
     x="872.82599"><tspan
       style="text-align:center;text-anchor:middle"
       id="tspan6089"
       y="424.85114"
       x="872.82599">Kolejna wersja produktu</tspan></text>
  <g
     style="fill-rule:evenodd"
     id="g7721"
     transform="matrix(0.035433,0,0,0.035433,-30.884928,-143.219)">
    <path
       style="fill:url(#linearGradient7899);fill-opacity:1;stroke:#009f9e;stroke-width:64.86071777;stroke-linecap:round;stroke-linejoin:round;stroke-miterlimit:4;stroke-opacity:1;stroke-dasharray:none"
       id="path7486"
       d="m 10432.964,11564.302 0,3192.76 1890.071,-1197.285 0,-2924.531 -1890.071,929.056 z" />
    <path
       style="fill:url(#linearGradient7901);fill-opacity:1;stroke:#009f9e;stroke-width:64.86071777;stroke-linecap:round;stroke-linejoin:round;stroke-miterlimit:4;stroke-opacity:1;stroke-dasharray:none"
       id="path7488"
       d="m 10998.243,11547.314 0,3192.76 1890.071,-1197.285 0,-2924.531 -1890.071,929.056 z" />
    <path
       style="fill:url(#linearGradient7903);fill-opacity:1;stroke:#009f9e;stroke-width:64.86071777;stroke-linecap:round;stroke-linejoin:round;stroke-miterlimit:4;stroke-opacity:1;stroke-dasharray:none"
       id="path7492"
       d="m 11580.307,11535.815 0,3192.76 1890.071,-1197.285 0,-2924.531 -1890.071,929.056 z" />
    <path
       style="fill:url(#linearGradient7905);fill-opacity:1;stroke:#009f9e;stroke-width:64.86071777;stroke-linecap:round;stroke-linejoin:round;stroke-miterlimit:4;stroke-opacity:1;stroke-dasharray:none"
       id="path7496"
       d="m 12139.11,11535.815 0,3192.76 1890.071,-1197.285 0,-2924.531 -1890.071,929.056 z" />
  </g>
  <text
     style="font-size:19.79995728px;font-style:normal;font-weight:normal;fill:#000000;fill-opacity:1;fill-rule:evenodd;stroke:none;font-family:Bitstream Vera Sans"
     xml:space="preserve"
     id="text7668"
     y="424.85114"
     x="289.69461"><tspan
       id="tspan7670"
       y="424.85114"
       x="289.69461">Wymagania iteracyjne</tspan></text>
  <text
     style="font-size:19.79995728px;font-style:normal;font-weight:normal;fill:#000000;fill-opacity:1;fill-rule:evenodd;stroke:none;font-family:Bitstream Vera Sans"
     xml:space="preserve"
     id="text7672"
     y="424.85114"
     x="590.18457"><tspan
       id="tspan7674"
       y="424.85114"
       x="590.18457">Iteracja</tspan></text>
  <text
     style="font-size:19.79995728px;font-style:normal;font-weight:normal;fill:#000000;fill-opacity:1;fill-rule:evenodd;stroke:none;font-family:Bitstream Vera Sans"
     xml:space="preserve"
     id="text7676"
     y="424.85114"
     x="16.201441"><tspan
       id="tspan7678"
       y="424.85114"
       x="16.201441">Wymagania projektowe</tspan></text>
  <g
     style="fill-rule:evenodd"
     id="g7714"
     transform="matrix(0.035433,0,0,0.035433,21.114954,-143.219)">
    <g
       id="g7696"
       transform="matrix(13.979967,0,0,9.7961512,10222.025,14480.354)">
      <path
         style="fill:#b3b3b3;fill-opacity:1;fill-rule:evenodd;stroke:#009f9e;stroke-width:3.9188962;stroke-linecap:round;stroke-linejoin:round;stroke-miterlimit:4;stroke-opacity:1;stroke-dasharray:none"
         id="path7698"
         d="m -474.77779,9.5403628 0,-67.9007928 -192.73255,0 0,67.9007928 192.73255,0 z m 0.0234,-67.8814358 15.17337,-24.366651 0.0347,55.711527 -15.24848,36.5210478 m 15.24848,-92.2537738 -181.91509,0 -26.09639,24.256553 192.81145,0.131231" />
      <path
         style="fill:#b3b3b3;fill-opacity:1;fill-rule:evenodd;stroke:#009f9e;stroke-width:3.9188962;stroke-linecap:round;stroke-linejoin:round;stroke-miterlimit:4;stroke-opacity:1;stroke-dasharray:none"
         id="path7708"
         d="m -473.90337,-71.835566 0,-67.900814 -192.73255,0 0,67.900814 192.73255,0 z m 0.0234,-67.881454 15.17337,-24.36665 0.0348,55.71153 -15.24848,36.521054 m 15.24848,-92.253784 -181.91509,0 -26.09639,24.25655 192.81145,0.13123" />
      <path
         style="fill:#b3b3b3;fill-opacity:1;fill-rule:evenodd;stroke:#009f9e;stroke-width:3.9188962;stroke-linecap:round;stroke-linejoin:round;stroke-miterlimit:4;stroke-opacity:1;stroke-dasharray:none"
         id="path7710"
         d="m -473.38762,-154.17184 0,-67.90081 -192.73255,0 0,67.90081 192.73255,0 z m 0.0234,-67.88145 15.17337,-24.36665 0.0347,55.71153 -15.24848,36.52105 m 15.24848,-92.25378 -181.91509,0 -26.09639,24.25655 192.81145,0.13123" />
      <path
         style="fill:#cccccc;fill-opacity:1;fill-rule:evenodd;stroke:#009f9e;stroke-width:3.9188962;stroke-linecap:round;stroke-linejoin:round;stroke-miterlimit:4;stroke-opacity:1;stroke-dasharray:none"
         id="path7712"
         d="m -415.37782,-239.82551 0,-67.90081 -192.73255,0 0,67.90081 192.73255,0 z m 0.0234,-67.88145 15.17337,-24.36665 0.0347,55.71153 -15.24848,36.52105 m 15.24848,-92.25378 -181.91509,0 -26.09639,24.25655 192.81145,0.13123" />
    </g>
  </g>
</svg>
